<?xml version="1.0" encoding="UTF-8" standalone="no"?>
<svg xmlns="http://www.w3.org/2000/svg" xmlns:xlink="http://www.w3.org/1999/xlink" class="freesewing" width="1367.14mm" height="1344.1mm" viewBox="0 0 1367.14 1344.1">
  <style type="text/css">
    <![CDATA[
    svg.freesewing path { fill: none; stroke: #212121; stroke-width: 0.6; stroke-linecap: round; stroke-linejoin: round; }
    svg.freesewing .sa { stroke-dasharray: 0.4, 0.8; }
    ]]>
  </style>
  <g id="fs-container">
    <g transform="translate(426.978, 50)">
      <g transform="translate(-85.192, 0)">
        <path class="fabric sa" id="fs-3" d="M 0,587.46 L 261.79,587.46 L 271.79,577.46 L 271.79,122.42 L 261.79,112.42 C 253.76,112.42 243.02,110.91 232.27,108.74 C 222.3,106.73 212.32,104.13 204.41,101.53 C 198.74,99.67 194.1,98.26 192.58,96.75 C 181.61,85.78 176.91,79.03 176.91,61.21 C 176.91,35.18 179.42,18.1 180.12,6.12 C 180.23,4.14 180.3,2.3 180.3,0.58 L 170.32,-10 L 85.19,-10 L 75.19,0 C 75.19,0.28 73.78,-0.32 73.99,-0.44 C 66.99,3.66 54.15,5.75 41.46,7.19 C 21.25,9.46 1.04,9.47 -0.06,9.47" />
        <path class="fabric sa" id="fs-46" d="M 0,587.46 L -261.79,587.46 L -271.79,577.46 L -271.79,122.42 L -261.79,112.42 C -253.76,112.42 -243.02,110.91 -232.27,108.74 C -222.3,106.73 -212.32,104.13 -204.41,101.53 C -198.74,99.67 -194.1,98.26 -192.58,96.75 C -181.61,85.78 -176.91,79.03 -176.91,61.21 C -176.91,35.18 -179.42,18.1 -180.12,6.12 C -180.23,4.14 -180.3,2.3 -180.3,0.58 L -170.31,-10 L -85.19,-10 L -75.19,0 C -75.19,0.28 -73.78,-0.32 -73.99,-0.44 C -66.99,3.66 -54.15,5.75 -41.46,7.19 C -21.25,9.46 -1.04,9.47 0.06,9.47" />
      </g>
    </g>
    <g transform="translate(1110.55, 50)">
      <g transform="translate(-85.192, 0)">
        <path class="fabric sa" id="fs-90" d="M 0,587.46 L 261.79,587.46 L 271.79,577.46 L 271.79,122.42 L 261.79,112.42 C 253.76,112.42 243.02,110.91 232.27,108.74 C 222.3,106.73 212.32,104.13 204.41,101.53 C 198.74,99.67 194.1,98.26 192.58,96.75 C 181.61,85.78 175.09,79.13 175.09,61.21 C 175.09,35.33 178.93,18.34 179.99,6.43 C 180.2,4.13 180.32,2 180.32,0 L 170.32,-10 L 85.19,-10 L 75.19,0 C 75.19,15.21 66.65,26.55 53.63,34.13 C 39.63,42.27 20.69,46.29 0,46.29" />
        <path class="fabric sa" id="fs-136" d="M 0,587.46 L -261.79,587.46 L -271.79,577.46 L -271.79,122.42 L -261.79,112.42 C -253.76,112.42 -243.02,110.91 -232.27,108.74 C -222.3,106.73 -212.32,104.13 -204.41,101.53 C -198.74,99.67 -194.1,98.26 -192.58,96.75 C -181.61,85.78 -175.09,79.13 -175.09,61.21 C -175.09,35.33 -178.93,18.34 -179.99,6.43 C -180.2,4.13 -180.31,2 -180.31,0 L -170.31,-10 L -85.19,-10 L -75.19,0 C -75.19,15.21 -66.65,26.55 -53.63,34.13 C -39.63,42.27 -20.69,46.29 0,46.29" />
      </g>
    </g>
    <g transform="translate(218.742, 788.448)">
      <path class="fabric sa" id="fs-183" d="M -178.68,1.15 L -120.31,506.8 L -110.38,515.65 L 110.38,515.65 L 120.31,506.8 L 178.68,1.15 L 167.01,-9.85 C 166.79,-9.81 166.51,-9.74 166.15,-9.66 C 165.59,-9.54 165.46,-9.52 165.32,-9.49 L 165.55,-9.54 C 165.2,-9.47 164.71,-9.42 163.99,-9.42 C 159.5,-9.42 150.64,-10.97 132.2,-17.54 C 122.82,-20.88 116.06,-24.06 110.86,-27.26 C 103.89,-31.56 99.9,-35.89 95.88,-40.56 C 87.97,-49.71 80.05,-60 57.53,-73.34 C 43,-81.94 24.18,-85.99 4.81,-85.99 C 2.6,-85.99 0.38,-85.93 -1.84,-85.82 C -22.99,-84.79 -43.63,-79.34 -59.43,-70.77 C -70.36,-64.83 -83.27,-55.45 -96.21,-46.04 C -96.51,-45.82 -96.81,-45.6 -97.11,-45.38 C -111.64,-34.82 -126.11,-24.23 -137.46,-19.68 C -156.16,-12.18 -168.69,-10.18 -170.56,-9.83 z" />
    </g>
  </g>
</svg>