<?xml version="1.0" encoding="UTF-8"?>
<svg xmlns="http://www.w3.org/2000/svg" 
     xmlns:xlink="http://www.w3.org/1999/xlink"
     class="freesewing"
     viewBox="0 0 1588.4469028523836 700"
     width="1588.4469028523836mm"
     height="700mm">
  <style type="text/css"><![CDATA[
/* Sample classes */
svg.freesewing path.sample {
  stroke-width: 0.75
}
svg.freesewing path.sample-focus {
  stroke-width: 1.5; fill: rgba(0,0,0,0.1)
}
/* Paperless grid */
svg.freesewing path.grid {
  stroke: #555;
  stroke-width: 0.3;
}
svg.freesewing path.gridline {
  stroke: #555;
  stroke-width: 0.2;
  fill: none;
}
svg.freesewing path.gridline-lg {
  stroke: #777;
  stroke-width: 0.2;
  stroke-dasharray: 1.5,1.5;
  fill: none;
}
svg.freesewing path.gridline-sm {
  stroke: #999;
  stroke-width: 0.1;
  fill: none;
}
svg.freesewing path.gridline-xs {
  stroke: #999;
  stroke-width: 0.1;
  stroke-dasharray: 0.5,0.5;
  fill: none;
}
svg.freesewing path.gridbox {
  fill: url(#grid);
}
  /* Reset */
  svg.freesewing path,
  svg.freesewing circle,
  svg.freesewing rect {
    fill: none;
    stroke: none;
  }

  /* Defaults */
  svg.freesewing path,
  svg.freesewing circle {
    stroke: #000;
    stroke-opacity: 1;
    stroke-width: 0.3;
    stroke-linecap: round;
    stroke-linejoin: round;
  }

  /* Stroke classes */
  svg.freesewing .fabric {
    stroke-width: 0.6;
    stroke: #212121;
  }
  svg.freesewing .lining {
    stroke-width: 0.6;
    stroke: #10b981;
  }
  svg.freesewing .interfacing {
    stroke-width: 0.6;
    stroke: #a3a3a3;
  }
  svg.freesewing .canvas {
    stroke-width: 0.6;
    stroke: #d97706;
  }
  svg.freesewing .various {
    stroke-width: 0.6;
    stroke: #ef4444;
  }
  svg.freesewing .note {
    stroke-width: 0.4;
    stroke: #8b5cf6;
  }
  svg.freesewing .mark {
    stroke-width: 0.4;
    stroke: #3b82f6;
  }
  svg.freesewing .contrast {
    stroke-width: 0.8;
    stroke: #ec4899;
  }

  svg.freesewing .stroke-xs {
    stroke-width: 0.1;
  }
  svg.freesewing .stroke-sm {
    stroke-width: 0.2;
  }
  svg.freesewing .stroke-lg {
    stroke-width: 0.6;
  }
  svg.freesewing .stroke-xl {
    stroke-width: 1;
  }
  svg.freesewing .stroke-xxl,
  svg.freesewing .stroke-2xl {
    stroke-width: 2;
  }
  svg.freesewing .stroke-3xl {
    stroke-width: 3;
  }
  svg.freesewing .stroke-4xl {
    stroke-width: 4;
  }

  svg.freesewing .sa {
    stroke-dasharray: 0.4, 0.8;
  }
  svg.freesewing .help {
    stroke-width: 0.2;
    stroke-dasharray: 15, 1.5, 1, 1.5;
  }
  svg.freesewing .dotted {
    stroke-dasharray: 0.4, 0.8;
  }
  svg.freesewing .dashed {
    stroke-dasharray: 1, 1.5;
  }
  svg.freesewing .lashed {
    stroke-dasharray: 6, 6;
  }
  svg.freesewing .hidden {
    stroke: none;
    fill: none;
  }
  svg.freesewing .no-stroke { stroke: none !important; }
  svg.freesewing .no-fill { fill: none !important; }
  svg.freesewing .muted {
    stroke-opacity: 0.15;
    fill-opacity: 0.15;
  }

  /* Fill classes */
  svg.freesewing .fill-fabric {
    fill: #212121;
  }
  svg.freesewing .fill-lining {
    fill: #10b981;
  }
  svg.freesewing .fill-interfacing {
    fill: #a3a3a3;
  }
  svg.freesewing .fill-canvas {
    fill: #d97706;
  }
  svg.freesewing .fill-various {
    fill: #ef4444;
  }
  svg.freesewing .fill-note {
    fill: #8b5cf6;
  }
  svg.freesewing .fill-mark {
    fill: #3b82f6;
  }
  svg.freesewing .fill-contrast {
    fill: #ec4899;
  }

  /* Text */
  svg.freesewing text {
    font-size: 5px;
    font-family: -apple-system, system-ui, BlinkMacSystemFont, 'Segoe UI', Roboto, 'Helvetica Neue',
      Arial, sans-serif;
    fill: #000;
    text-anchor: start;
    font-weight: 200;
    dominant-baseline: ideographic;
  }
  svg.freesewing .text-xs {
    font-size: 3px;
  }
  svg.freesewing .text-sm {
    font-size: 4px;
  }
  svg.freesewing .text-lg {
    font-size: 7px;
  }
  svg.freesewing .text-xl {
    font-size: 9px;
  }
  svg.freesewing .text-xxl {
    font-size: 12px;
  }
  svg.freesewing .text-4xl {
    font-size: 36px;
  }

  svg.freesewing .center {
    text-anchor: middle;
  }
  svg.freesewing .baseline-center {
    alignment-baseline: central;
    dominant-baseline: central;
  }

  svg.freesewing .right {
    text-anchor: end;
  }

  /* Bartack */
  svg.freesewing path.bartack {
    stroke-width: 2;
    stroke: #fd7e14;
    stroke-linecap: butt;
  }
]]></style>
  <defs>
 button="
<g id="button" transform="scale(1)">
  <circle cx="0" cy="0" r="3.4" class="mark" />
  <circle cx="-1" cy="-1" r="0.5" class="no-stroke fill-mark" />
  <circle cx="1" cy="-1" r="0.5" class="no-stroke fill-mark" />
  <circle cx="1" cy="1" r="0.5" class="no-stroke fill-mark" />
  <circle cx="-1" cy="1" r="0.5" class="no-stroke fill-mark" />
</g>" buttonhole="
<g id="buttonhole" transform="scale(1)">
  <path class="mark" d="M -1,-5 L 1,-5 L 1,5 L -1,5 z" />
</g>" buttonhole-start="
<g id="buttonhole-start" transform="scale(1)">
  <path class="mark" d="M -1,-10 L 1,-10 L 1,0 L -1,0 z" />
</g>" buttonhole-end="
<g id="buttonhole-end" transform="scale(1)">
  <path class="mark" d="M -1,0 L 1,0 L 1,10 L -1,10 z" />
</g>" snap-stud-grad="
<radialgradient id="snap-stud-grad" cx="50%" cy="50%" r="50%" fx="50%" fy="50%" transform="scale(1)">
  <stop offset="30%" style="stop-color:rgb(235,235,235); stop-opacity:1" />
  <stop offset="80%" style="stop-color:rgb(100,100,100);stop-opacity:1" />
</radialgradient>" snap-stud="
<g id="snap-stud" transform="scale(1)">
  <circle id="snap-stud-circle-edge" cx="0" cy="0" r="3.4" style="stroke:#666;fill:#dddddd;stroke-width:0.3;" />
  <circle id="snap-stud-circle-middle" cx="0" cy="0" r="1.8" style="stroke:none;fill:url(#snap-stud-grad);" />
  <path id="snap-stud-lines" style="fill:none;stroke:#666; stroke-width:0.2;" d="M -2,0 L -3,0 M 2,0 L 3,0 M 0,2 L 0,3 M 0,-2 L 0,-3 M 1.5,1.5 L 2.1,2.1 M -1.5,1.5 L -2.1,2.1 M -1.5,-1.5 L -2.1,-2.1 M 1.5,-1.5 L 2.1,-2.1" />
</g>" snap-socket="
<g id="snap-socket" transform="scale(1)">
  <circle id="snap-socket-circle-edge" cx="0" cy="0" r="3.4" style="stroke:#666;fill:#bbbbbb;stroke-width:0.3;" />
  <circle id="snap-socket-circle-middle" cx="0" cy="0" r="2" style="stroke:#666;fill:#dddddd; stroke-width:0.4;" />
  <path style="fill:none;stroke:#666; stroke-width:0.5;" d="M -1.7,-1 L -1.7,1 M 1.7,-1 L 1.7,1" id="snap-socket-lines" />
</g>" eyelet="
<g id="eyelet">
  <circle id="eyelet-circle" cx="0" cy="0" r="3.4" class="no-full stroke-mark mark" stroke-width="1" fill="none" stroke="currentColor">
  </circle>
</g>" cutonfoldFrom="
<marker orient="auto" refY="0" refX="0" id="cutonfoldFrom" style="overflow:visible;" markerWidth="12" markerHeight="8" transform="scale(1)">
	<path class="note fill-note" d="M 0,0 L 12,-4 C 10,-2 10,2 12,4 z" transform="scale(1)" />
</marker>" cutonfoldTo="
<marker orient="auto" refY="0" refX="0" id="cutonfoldTo" style="overflow:visible;" markerWidth="12" markerHeight="8" transform="scale(1)">
	<path class="note fill-note" d="M 0,0 L -12,-4 C -10,-2 -10,2 -12,4 z" transform="scale(1)" />
</marker>" dimensionFrom="
<marker orient="auto" refY="0" refX="0" id="dimensionFrom" style="overflow:visible;" markerWidth="12" markerHeight="8">
	<path class="mark fill-mark" d="M 0,0 L 12,-4 C 10,-2 10,2 12,4 z" transform="scale(1)" />
</marker>" dimensionTo="
<marker orient="auto" refY="0" refX="0" id="dimensionTo" style="overflow:visible;" markerWidth="12" markerHeight="8">
	<path class="mark fill-mark" d="M 0,0 L -12,-4 C -10,-2 -10,2  -12,4 z" transform="scale(1)" />
</marker>" grainlineFrom="
<marker orient="auto" refY="0" refX="0" id="grainlineFrom" style="overflow:visible;" markerWidth="12" markerHeight="8">
	<path class="note fill-note" d="M -10,0 L 2,-4 C 0,-2 0,2  2,4 z" transform="scale(1)" />
</marker>" grainlineTo="
<marker orient="auto" refY="0" refX="0" id="grainlineTo" style="overflow:visible;" markerWidth="12" markerHeight="8">
	<path class="note fill-note" d="M 10,0 L -2,-4 C 0,-2 -2,2  -2,4 z" transform="scale(1)" />
</marker>" logo="<g id="logo" transform="scale(2) translate(-12.55 -18)"><path class="logo" fill="currentColor" d="m18.56 0c-0.4945 0.3515-0.469 0.3065-0.8685 0.437-0.916 0.2995-1.7945 0.135-2.837 0.048-0.3135-0.035-0.6245-0.0555-0.928-0.0575-1.5325-0.0105-2.834 0.439-3.0805 1.694-0.4545 0.2755-0.8725 0.609-1.2865 0.943-0.884 0.6975-1.5495 1.55-2.0035 2.5775-0.62 1.5175-0.06 3.146 0.2175 4.684 0.066 0.36 0.135 0.703 0.172 0.8355 0.0525 0.1865 0.145 0.3645 0.2455 0.5245 0.0235 4e-3 0.1475-0.187 0.177-0.2715 0.043-0.123 0.0385-0.3205-0.0085-0.4905-0.104-0.3825-0.203-0.693-0.2115-0.849-0.015-0.293 0.042-0.5635 0.149-0.6975 0.038-0.0475 0.125 0.1975 0.1025 0.2885-0.0265 0.1095-0.0465 0.297-0.038 0.3835 0.0235 0.293 0.0665 0.6065 0.12 0.8805 0.0685 0.3535 0.098 0.5805 0.0855 0.6685-9e-3 0.064-0.039 0.1285-0.154 0.3265-0.1 0.1735-0.152 0.314-0.16 0.438-0.0085 0.121 0.028 0.4235 0.062 0.4975 0.0495 0.1155 0.1985 0.237 0.3285 0.267 0.1245 0.0475 0.187 0.146 0.251 0.2565 0.1555 0.2965 0.2755 0.6575 0.3945 1.2015 0.058 0.2605 0.1065 0.493 0.122 0.615-0.96 1e-3 -2.1895 0.0015-3.3095 0.0015-0.377 6e-3 -1.058-0.171-1.6825-0.212-0.0905-0.977-0.5195-2.112-1.2535-2.178-0.501-0.0455-0.9165 0.145-1.268 0.9365l0.01 0.0425c0.2075-0.1735 0.4265-0.704 1.2155-0.6675 0.606 0.0275 0.808 1.1745 0.868 1.8645-0.369 0.027-0.683 0.1405-0.847 0.424h-0.0035c0 5e-4 0 0.0015 0.0015 0.0025-0.0015 1e-3 -0.0015 2e-3 -0.0015 3e-3h0.0035c0.169 0.2905 0.4945 0.403 0.877 0.4255 0.2555 7.225 7.047 8.157 8.903 8.157 6.924 0 9.348-4.705 9.7125-6.5685 0.1705 0.794-0.3665 1.8055-0.495 2.552 1.4605-1.6885 1.1965-3.312 0.9295-4.945 0.222 0.264 0.5225 0.4275 0.93 0.337-0.2905-0.194-0.6845-0.058-0.9205-0.8765-0.103-0.3535-0.192-0.6185-0.2805-0.841-0.191-0.7165-0.462-1.401-0.795-2.068-0.281-0.7235-0.0955-1.1925-0.1235-1.8135 0.5055 1.667 0.8215 2.1105 1.4115 2.285-1.484-1.788-0.976-4.5565-1.8145-7.0275 0.3795 0.223 0.8125 0.29 1.2735 0.0175-0.446-0.127-0.891 0.2085-1.531-0.732-0.5405-1.0515-1.3235-1.828-2.2735-2.513-0.509-0.332-1.074-0.555-1.642-0.762 0.5785-0.145 1.2245-0.66 1.2545-1.0445zm-0.9705 5.5535c0.762 0.278 1.602 1.334 1.5925 2.37v0.058c-0.0205 1.407-0.66 2.1635-0.633 3.1005 0.0345 1.1035 0.5095 1.4885 0.604 1.6725-0.162-0.6805-0.257-1.5365-0.043-2.2145 0.275-0.872 0.5525-1.594 0.5325-2.277-0.01-0.16-0.078-0.7585-0.1235-1.0235 0.817 1.179-0.177 2.8935 0.109 4.0155 0.497 1.9545 2.7245 2.2015 2.0615 6.1395-0.5835 3.462-4.5815 6.0895-8.6795 6.0895-3.038 0-8.3025-1.6815-8.5625-7.646 0.6175-0.044 1.2815-0.216 1.654-0.21 1.126 0 2.412 5e-4 3.381 1e-3 0.182 0.821 0.3185 1.019 1.009 1.566 0.768 0.604 0.947 0.6775 2.083 0.6885 1.1365 0.0115 1.4735-0.232 2.576-1.275 0.238-0.279 0.341-0.6445 0.4565-0.988 1.134-0.0105 1.961-0.0305 2.7745-0.0685 0.8285-0.0375 0.9455 0 2.2805-0.1375-1.335-0.1375-1.452-0.1-2.2805-0.138-0.792-0.036-1.594-0.0565-2.6785-0.0665 0.091-0.4085 0.221-0.8075 0.3595-1.202 0.0855-0.2325 0.186-0.459 0.289-0.6845l0.1125-0.035c0.217-0.077 0.409-0.242 0.4855-0.465 0.0985-0.2955 0.0285-0.6275-0.162-0.869-0.0655-0.0905-0.147-0.206-0.1805-0.257-0.1005-0.159-0.103-0.2475-0.018-0.8385 0.0715-0.495 0.0795-0.754 0.03-1.005-0.01-0.1435-0.011-0.4385-0.0155-0.518 0.038 0.021 0.1205 0.209 0.204 0.4635 0.083 0.2555 0.0965 0.3085 0.1155 0.526 0.021 0.247-0.0715 0.43-0.1475 0.7985-0.038 0.19-0.0715 0.3665-0.0715 0.3905 0 0.0255 0.018 0.0795 0.037 0.1215 0.0445 0.094 0.128 0.226 0.1435 0.226 0.2725-0.3005 0.4325-0.6715 0.575-1.048 0.15-0.426 0.194-0.878 0.299-1.3165 0.085-0.382 0.183-0.7645 0.2135-1.1565 0.0615-0.765 0.0255-1.305-0.1435-2.102-0.0405-0.18-0.1575-0.5235-0.239-0.6855zm-2.68 3.7685c0.2925-0.0035 0.582 0.032 0.8575 0.1115 0.3745 0.1435 0.427 0.478 0.496 0.8535 0.0385 0.24 0.037 0.4125-0.0065 0.6945-0.0305 0.409-0.193 0.7255-0.548 0.948-0.5355 0.099-1.108 0.1945-1.562-0.16-0.381-0.525-0.6105-1.1885-0.523-1.8355 0.0555-0.2655 0.179-0.4035 0.433-0.486 0.2735-0.0785 0.563-0.1215 0.853-0.126zm-4.4415 0.0475c0.2735-0.0025 0.55 0.0265 0.702 0.1235 0.6525 0.4415 0.443 1.16 0.185 1.7905-0.3755 0.8255-1.1875 0.795-1.9745 0.7885-0.4355-0.1275-0.4755-0.4845-0.5385-0.866-0.054-0.3685-0.169-0.7635-0.073-1.134 0.2465-0.596 1.1475-0.6645 1.699-0.7025zm9.9515 0.103c0.0035 1.5865 0.2745 2.366 0.8185 3.4895-0.3205-0.6115-0.7785-0.9595-0.949-1.6905-0.326-1.4115 0.0255-1.3325 0.1305-1.799zm-7.9065 1.149c0.086 0.087 0.1275 0.207 0.202 0.3025 0.0575-0.0985 0.1165-0.1965 0.1905-0.284 0.0385 1e-3 0.0855 0.077 0.128 0.213 0.182 0.503 0.2175 1.0565 0.4535 1.54 0.2205 0.35-0.0805 0.554-0.411 0.57-0.241-5e-4 -0.343-0.165-0.4845-0.328-0.0365 0.1065-0.106 0.175-0.189 0.247-0.211 0.177-0.6245 0.1115-0.6885-0.1675 0.085-0.533 0.3565-1.0225 0.5345-1.5335 0.0885-0.1865 0.0895-0.3295 0.2645-0.5595zm-3.096 2.6925c0.1065 0 0.399 0.1985 0.4585 0.3105 0.041 0.0745 0.1345 0.3645 0.141 0.435 0.0105 0.084-0.015 0.283-0.041 0.337-0.019 0.0385-0.0335 0.044-0.0555 0.019-0.0185-0.021-0.2635-0.491-0.42-0.802-0.123-0.249-0.136-0.2995-0.083-0.2995zm6.111 0.1555c4e-3 5e-4 0.01 2e-3 0.0155 0.0035 0.033 0.0135 0.01 0.1305-0.114 0.5555-0.0235 0.128-0.0805 0.229-0.164 0.313-0.0275 0-0.04-0.032-0.083-0.2095-0.0365-0.1515-0.0405-0.2865-0.015-0.4075 0.044-0.1515 0.222-0.198 0.3605-0.255zm-0.7415 0.9265c0.0105-2e-3 0.0205 0.0035 0.0335 0.014 0.045 0.0315 0.0515 0.1145 0.0215 0.277-0.0365 0.209-0.0445 0.232-0.0985 0.2535-0.0235 0.0105-0.0655 0.018-0.0935 0.018-0.0505-9e-3 -0.0635-0.05-0.0515-0.112 0-0.13 0.038-0.243 0.124-0.3765 0.0325-0.05 0.049-0.0715 0.0645-0.074zm-4.3165 0.0095c0.0345 0 0.1385 0.075 0.177 0.127 0.043 0.055 0.092 0.3825 0.0645 0.439-0.0315 0.071-0.1855 0.0355-0.228-0.053-0.026-0.053-0.0875-0.339-0.0875-0.407 0-0.063 0.0305-0.106 0.074-0.106zm3.9455 0.0865c0.042 0.06 0.053 0.137 0.044 0.306l-0.0085 0.154-0.044 0.044c-0.0265 0.0245-0.0715 0.0545-0.0985 0.067-0.0595 0.028-0.105 0.0305-0.1135 8e-3 -0.01-0.03 7e-3 -0.221 0.0255-0.2855 0.0215-0.0665 0.118-0.265 0.15-0.307 0.0145-0.0385 0.0315 0.0095 0.045 0.0135zm-2.5105-9e-3c0.0905 0.023 0.1305 0.1045 0.18 0.1785l0.0335 0.066-0.047 0.1635c-0.025 0.09-0.0515 0.171-0.0595 0.18-9e-3 0.01-0.0425 0.015-0.092 0.0145-0.132-0.0035-0.147-9e-3 -0.1825-0.063l-0.033-0.049 0.028-0.1375c0.0405-0.198 0.06-0.2575 0.105-0.3085 0.0235-0.0275 0.047-0.0425 0.0675-0.0445zm-0.8355 0.1415 0.0745 0.0745 0.0125 0.1685c0.0065 0.092 0.0095 0.1775 0.0045 0.188-0.0045 0.0145-0.0315 0.0185-0.115 0.0185h-0.1085c-0.058-0.0635-0.076-0.141-0.1005-0.221-0.057-0.2405-0.057-0.35 2e-3 -0.3645 0.0965 6e-3 0.16 0.076 0.2305 0.136zm2.9-0.1155c0.118 0.0315 0.0945 0.219 0.094 0.353-9e-3 0.217-0.0175 0.262-0.0455 0.29-0.0485 0.0485-0.1835 0.0215-0.249-0.0505-0.0215-0.026-0.0235-0.034-0.0065-0.1395 0.0195-0.1285 0.0445-0.2085 0.1-0.3185 0.0405-0.079 0.0785-0.1285 0.107-0.1345zm-2.663 0.01c0.0065-5e-4 0.017 0 0.027 1e-3 0.075 6e-3 0.145 0.055 0.207 0.145l0.05 0.0735c0.0045 0.1205 0 0.2475-0.0215 0.3595-0.013 0.0065-0.067 0.0165-0.12 0.0215-0.092 0.0085-0.1005 0.0065-0.1325-0.0215-0.0445-0.038-0.057-0.1085-0.068-0.3425-0.0065-0.191-2e-3 -0.2335 0.058-0.2365zm1.1345 0.04c0.0805 0.017 0.1315 0.06 0.154 0.1305 0.018 0.0605 0.029 0.399 0.0115 0.4225-6e-3 0.01-0.044 0.0225-0.0875 0.028-0.162 0.0205-0.305 5e-3 -0.319-0.0335-0.018-0.044 0.1025-0.48 0.147-0.534 0.019-0.042 0.065-0.0095 0.094-0.0135zm1.049 3e-3c0.0355-0.0035 0.0735 0.0305 0.1105 0.103 0.03 0.0605 0.0345 0.0815 0.0345 0.217 0 0.108-0.0065 0.1545-0.018 0.1645-0.01 8e-3 -0.0505 0.0225-0.0935 0.0335-0.075 0.0195-0.0915 0.0215-0.115 0.0135l-0.1125-0.0205 0.0085-0.067c8e-3 -0.0875 0.0655-0.2815 0.106-0.3655 0.024-0.05 0.0515-0.075 0.0795-0.0785zm-0.489 0.0015c0.0235-1e-3 0.0345 0.0045 0.0495 0.021 0.0355 0.042 0.0805 0.166 0.109 0.2985 0.038 0.1865 0.038 0.186-0.0435 0.2105-0.0355 0.011-0.1105 0.0225-0.164 0.0255-0.1765 9e-3 -0.19-0.0015-0.1685-0.1575 0.017-0.139 0.0855-0.358 0.115-0.374 0.032-0.017 0.069-0.0165 0.1025-0.024zm-8.9965 0.7045c0.0015-5e-4 0.0035 0 0.0035 0 0.0045 0.0975 0.0045 0.196 0.0065 0.294-0.2475-0.019-0.4295-0.078-0.4295-0.1475 0-0.0685 0.1755-0.127 0.4195-0.1465zm0.4325 0.0085c0.2005 0.025 0.339 0.0775 0.3365 0.138 0 0.061-0.134 0.113-0.333 0.1375-2e-3 -0.0915-2e-3 -0.1835-0.0035-0.2755zm9.363 0.2665c0.017-0.0015 0.0245-3e-3 0.0505-5e-4 0.104 0.0105 0.119 0.017 0.119 0.052 0 0.046-0.079 0.1845-0.1325 0.2325-0.025 0.024-0.0595 0.044-0.0715 0.044-0.06 0-0.095-0.1265-0.067-0.243 0.017-0.063 0.048-0.0825 0.1015-0.085zm-0.3775 0.0415c0.0465-4e-3 0.0915 0.0085 0.1365 0.0145-0.013 0.1315-0.072 0.239-0.1815 0.3105-0.027 0-0.0405-0.0515-0.0405-0.164 0-0.134 7e-3 -0.1595 0.0855-0.161zm-0.414 0.0485c0.0965 0 0.1815 0.0045 0.1855 0.01 0.018 0.017-0.034 0.146-0.1105 0.277-0.0655 0.1165-0.075 0.125-0.1155 0.128-0.159-0.018-0.1545-0.2045-0.179-0.3325 0-0.076 0.017-0.0825 0.2195-0.0825zm-1.5045 0.0145c0.1105 2e-3 0.1535 0.0185 0.1535 0.061 0 0.054-0.041 0.1615-0.0645 0.175-0.0355 0.0195-0.0385 0.0185-0.1085-0.0545-0.1105-0.124-0.123-0.147 0.0195-0.1815zm0.532 0.0055c2e-3 3e-3 0.0235 0.042 0.045 0.086 0.047 0.0915 0.0505 0.1315 0.017 0.162-0.079 0.045-0.0955 0.0195-0.167-0.026-0.083-0.0785-0.1485-0.184-0.127-0.206 0.074-0.0265 0.1555-0.0165 0.232-0.016zm0.211 0.0025 0.1975 0.0035c0.077 0 0.1435 4e-3 0.147 0.01 0.0135 0.012-0.03 0.269-0.0535 0.327-0.027 0.065-0.1215 0.0655-0.1705-0.0115-0.07-0.1105-0.116-0.2035-0.1175-0.2675z" /></g>" notch="
<g id="notch" transform="scale(1)">
  <circle cy="0" cx="0" r="1.4" class="fill-note" />
  <circle cy="0" cx="0" r="2.8" class="note" />
</g>" bnotch="
<g id="bnotch" transform="scale(1)">
  <path d="M -1.1 -1.1 L 1.1 1.1 M 1.1 -1.1 L -1.1 1.1" class="note" />
  <circle cy="0" cx="0" r="2.8" class="note" />
</g>" pleat="
<marker id="pleatTo" markerWidth="10" markerHeight="6" orient="auto" refY="3" refX="10">
	<path d="M 10,3 L 0,0 C 2,2 2,4 0,6 z" class="fill-note note" transform="scale(1)" />
</marker>
" sewTogetherStart="
<marker id="sewTogetherStart" markerWidth="10" markerHeight="6" orient="auto" refX="1" refY="2">
	<path d="M 0,2 L 6,0 C 5,1 5,3 6,4 z" class="fill-note note" transform="scale(1)" />
</marker>" sewTogetherEnd="
<marker id="sewTogetherEnd" markerWidth="10" markerHeight="6" orient="auto" refX="6" refY="2">
	<path d="M 6,2 L 0,0 C 1,1 1,3 0,4 z" class="fill-note note" transform="scale(1)" />
</marker>" sewTogetherCross="
<marker id="sewTogetherCross" markerWidth="5" markerHeight="5" orient="auto" refX="2.5" refY="2.5">
  <path d="M 0,0 L 5,5 M 5,0 L 0,5" class="note" transform="scale(1)" />
</marker>" grid="
<pattern id="grid" height="100" width="100" patternUnits="userSpaceOnUse">
  <path class="gridline-lg" d="M 0 0 L 0 100 L 100 100" />
  <path class="gridline" d="M 50 0 L 50 100 M 0 50 L 100 50" />
  <path class="gridline-sm" d="M 10 0 L 10 100 M 20 0 L 20 100 M 30 0 L 30 100 M 40 0 L 40 100 M 60 0 L 60 100 M 70 0 L 70 100 M 80 0 L 80 100 M 90 0 L 90 100" />
  <path class="gridline-sm" d="M 0 10 L 100 10 M 0 20 L 100 20 M 0 30 L 100 30 M 0 40 L 100 40 M 0 60 L 100 60 M 0 70 L 100 70 M 0 80 L 100 80 M 0 90 L 100 90" />
  <path class="gridline-xs" d="M 5 0 L 5 100 M 15 0 L 15 100 M 25 0 L 25 100 M 35 0 L 35 100 M 45 0 L 45 100 M 55 0 L 55 100 M 65 0 L 65 100 M 75 0 L 75 100 M 85 0 L 85 100 M 95 0 L 95 100" />
  <path class="gridline-xs" d="M 0 5 L 100 5 M 0 15 L 100 15 M 0 25 L 100 25 M 0 35 L 100 35 M 0 45 L 100 45 M 0 55 L 100 55 M 0 65 L 100 65 M 0 75 L 100 75 M 0 85 L 100 85 M 0 95 L 100 95" />
</pattern>" grid_brian.back="<pattern id="grid_brian.back" xlink:href="#grid" x="0" y="600" />'" grid_brian.front="<pattern id="grid_brian.front" xlink:href="#grid" x="0" y="600" />'" grid_brian.sleeve="<pattern id="grid_brian.sleeve" xlink:href="#grid" x="0" y="0" />'"
</defs>
  <g id="fs-stack-brian.sleeve" transform="translate(89.9972477632, 0.0036650172207544074) translate(263.1327522368, 218.37633498277924)">

<!-- Start of group #fs-stack-brian.sleeve-part-brian.sleeve -->
<g id="fs-stack-brian.sleeve-part-brian.sleeve" transform="translate(0, 0)">
<path class="grid" style="fill: url(#grid_brian.sleeve)" id="fs-92" d="M -253.13,-208.38 L -253.13,471.62 L 222.82,471.62 L 222.82,-208.38 z" />
<path class="fabric" id="fs-93" d="M -213.13,0 L -102,431.62 L 102,431.62 L 213.13,0 C 213.13,0 192.18,-7.16 161.4,-29.36 C 115.24,-62.67 105.28,-104.23 68.81,-147.94 C 44.5,-177.08 -45.41,-173.88 -70.96,-145.82 C -91.39,-123.37 -147.49,-48.39 -168.11,-31.65 C -186.68,-16.58 -213.13,0 -213.13,0 z" />
<path class="fabric sa" id="fs-94" d="M -222.82,2.49 L -111.68,434.12 L -102,441.62 L 102,441.62 L 111.68,434.12 L 222.82,2.49 L 216.65,-9.36 C 214.84,-10.04 196.66,-16.26 167.25,-37.47 C 141.81,-55.83 128,-76.91 114.09,-99.39 C 103.18,-117.01 92.24,-135.47 76.49,-154.35 C 63.53,-169.87 34.35,-178.38 3.38,-178.38 C 1.78,-178.38 0.18,-178.35 -1.43,-178.31 L -1.71,-178.31 C -33.37,-177.42 -64.4,-167.88 -78.35,-152.55 C -88.04,-141.9 -105.75,-119.44 -123.9,-96.98 C -125.32,-95.25 -126.36,-93.97 -127.4,-92.69 C -145.95,-69.8 -164.42,-47.53 -174.42,-39.41 C -174.95,-38.98 -175.48,-38.55 -176.02,-38.12 C -179.41,-35.42 -183.04,-32.66 -186.67,-29.99 L -186.35,-30.24 C -202.02,-18.74 -217.69,-8.92 -219.05,-8.06 z" />
<path class="note" marker-start="url(#grainlineFrom)" marker-end="url(#grainlineTo)" data-text="plugin-annotations:grainline" data-text-class="center fill-note" id="fs-95" d="M 0,410.04 L 0,21.58" />
<text><textpath xlink:href="#fs-95" startOffset="50%"><tspan class="center fill-note">plugin-annotations:grainline</tspan></textpath>
</text>
<path class="scalebox imperial fill-current" id="fs-96" d="M -50.8,190.41 L -50.8,241.21 L 50.8,241.21 L 50.8,190.41 L -50.8,190.41 z" />
<path class="scalebox metric fill-bg" id="fs-97" d="M -50,190.81 L -50,240.81 L 50,240.81 L 50,190.81 L -50,190.81 z" />
<path class="mark dotted" id="fs-98" d="M -102,431.62 L -238.13,431.62" />
<path class="mark dotted" id="fs-99" d="M -213.13,0 L -238.13,0" />
<path class="mark" data-text="43.16cm" data-text-class="fill-mark center" data-macro-id="hCuffToArmhole" marker-start="url(#dimensionFrom)" marker-end="url(#dimensionTo)" id="fs-100" d="M -238.13,431.62 L -238.13,0" />
<text><textpath xlink:href="#fs-100" startOffset="50%"><tspan class="fill-mark center">43.16cm</tspan></textpath>
</text>
<path class="mark dotted" id="fs-101" d="M -102,431.62 L -253.13,431.62" />
<path class="mark dotted" id="fs-102" d="M 3.52,-168.38 L -253.13,-168.38" />
<path class="mark" data-text="60cm" data-text-class="fill-mark center" data-macro-id="hFull" marker-start="url(#dimensionFrom)" marker-end="url(#dimensionTo)" id="fs-103" d="M -253.13,431.62 L -253.13,-168.38" />
<text><textpath xlink:href="#fs-103" startOffset="50%"><tspan class="fill-mark center">60cm</tspan></textpath>
</text>
<path class="mark dotted" id="fs-104" d="M -213.13,0 L -213.13,-208.38" />
<path class="mark dotted" id="fs-105" d="M 213.13,0 L 213.13,-208.38" />
<path class="mark" data-text="42.63cm" data-text-class="fill-mark center" data-macro-id="wFull" marker-start="url(#dimensionFrom)" marker-end="url(#dimensionTo)" id="fs-106" d="M -213.13,-208.38 L 213.13,-208.38" />
<text><textpath xlink:href="#fs-106" startOffset="50%"><tspan class="fill-mark center">42.63cm</tspan></textpath>
</text>
<path class="mark dotted" id="fs-107" d="M -102,431.62 L -102,471.62" />
<path class="mark dotted" id="fs-108" d="M 102,431.62 L 102,471.62" />
<path class="mark" data-text="20.4cm" data-text-class="fill-mark center" data-macro-id="wCuff" marker-start="url(#dimensionFrom)" marker-end="url(#dimensionTo)" id="fs-109" d="M -102,471.62 L 102,471.62" />
<text><textpath xlink:href="#fs-109" startOffset="50%"><tspan class="fill-mark center">20.4cm</tspan></textpath>
</text>
<path class="mark" data-text="56.61cm" data-text-class="fill-mark center" marker-start="url(#dimensionFrom)" marker-end="url(#dimensionTo)" id="fs-110" d="M -226.52,-21.12 C -225.16,-21.98 -209.49,-31.79 -193.82,-43.29 L -195.23,-42.33 C -191.6,-45 -187.96,-47.76 -184.51,-50.51 L -185.31,-49.9 C -184.77,-50.33 -184.24,-50.76 -183.71,-51.19 C -174.31,-58.82 -156.78,-80.25 -139.04,-102.14 C -138,-103.42 -136.96,-104.71 -135.93,-105.99 C -117.81,-128.42 -100.09,-150.88 -90.4,-161.53 L -89.44,-162.65 C -73.54,-180.12 -38.64,-192.28 -2.12,-193.3 C -0.52,-193.34 1.08,-193.37 2.68,-193.37 C 39.82,-193.38 73.01,-181.93 88,-163.96 C 104.25,-144.49 115.58,-125.47 126.84,-107.28 C 139.75,-86.43 152.39,-66.69 176.03,-49.64 C 203.37,-29.92 220.24,-24.03 221.92,-23.4" />
<text><textpath xlink:href="#fs-110" startOffset="50%"><tspan class="fill-mark center">56.61cm</tspan></textpath>
</text>
<path class="mark dotted" id="fs-111" d="M -213.13,0 L -226.52,-21.12" />
<path class="mark dotted" id="fs-112" d="M 213.13,0 L 221.92,-23.4" />
<text class="text-4xl fill-note font-bold left" transform="matrix(1, 0, 0, 1, 0, 0) rotate(0 0 0)" x="0" y="0"><tspan>3 </tspan>
</text>
<text class="text-sm fill-current left" transform="matrix(1, 0, 0, 1, 0, 0) rotate(0 0 0)" x="0" y="4"><tspan>Thursday, Nov 20, 2025 </tspan>
</text>
<text transform="matrix(1, 0, 0, 1, 0, 0) rotate(0 0 0)" class="text-lg fill-current font-bold left" x="0" y="16"><tspan>sleeve </tspan>
</text>
<text class="fill-note left" transform="matrix(1, 0, 0, 1, 0, 0) rotate(0 0 0)" x="0" y="24"><tspan>FreeSewing Brian body block v4.4.0 ( ephemeral ) </tspan>
</text>
<text class="text-md fill-current left" transform="matrix(1, 0, 0, 1, 0, 0) rotate(0 0 0)" x="0" y="32"><tspan>plugin-annotations:cut,2,plugin-annotations:mirrored,plugin-annotations:from,plugin-annotations:fabric,</tspan><tspan x="0" dy="8"> </tspan>
</text>
<text class="text-xs bold" x="-45" y="200.81"><tspan>FreeSewing </tspan>
</text>
<text class="text bold" x="-45" y="210.81"><tspan>Brian body block v4.4.0 </tspan>
</text>
<text class="text-xs" x="-45" y="222.81"><tspan>plugin-annotations:supportFreeSewingBecomeAPatron </tspan>
</text>
<text class="text-sm fill-note bold" x="-45" y="227.81"><tspan>FreeSewing.org/patrons/join </tspan>
</text>
<text class="text-xs center" x="0" y="235.81"><tspan>plugin-annotations:theWhiteInsideOfThisBoxShouldMeasure 10cm x 5cm </tspan>
</text>
<text class="text-xs center" x="0" y="239.81"><tspan>plugin-annotations:theBlackOutsideOfThisBoxShouldMeasure 4“ x 2“ </tspan>
</text>
<use x="0" y="129.49" xlink:href="#logo" transform="translate(0, 129.49) scale(1) translate(0, -129.49)" />
<use x="98.72" y="-105.24" xlink:href="#notch" transform="translate(98.72, -105.24) scale(1) translate(-98.72, 105.24)" />
<use x="-100.73" y="-109.85" xlink:href="#bnotch" transform="translate(-100.73, -109.85) scale(1) translate(100.73, 109.85)" />
</g>
<!-- end of group #fs-stack-brian.sleeve-part-brian.sleeve -->
</g>
  <g id="fs-stack-brian.back" transform="translate(89.9972477632, 0.0036650172207544074) translate(1040.9496550891836, 50)">

<!-- Start of group #fs-stack-brian.back-part-brian.back -->
<g id="fs-stack-brian.back-part-brian.back" transform="translate(-87.5, 0)">
<path class="grid" style="fill: url(#grid_brian.back)" id="fs-1" d="M -30,-40 L -30,625 L 357.5,625 L 357.5,-40 z" />
<path class="fabric" id="fs-2" d="M 0,20 L 0,600 L 287.5,600 L 287.5,280.9 C 270.75,280.9 249.99,266.82 242.28,259.12 C 226.88,243.71 220.5,207.72 220.5,156.32 C 220.5,94.03 219.4,56.02 225,31.74 L 87.5,0 C 82.88,20 0,20 0,20" />
<path class="fabric sa" id="fs-3" d="M 0,610 L 287.5,610 L 297.5,600 L 297.5,280.9 L 287.5,270.9 C 284.51,270.9 281.36,270.26 278.21,269.28 C 271.14,267.09 264.09,263.17 258.42,259.3 C 254.61,256.7 251.43,254.12 249.36,252.04 C 235.01,237.7 230.5,203.59 230.5,156.32 C 230.5,147.52 230.48,139.19 230.46,131.33 C 230.43,123.44 230.41,116.03 230.41,109.04 C 230.41,74.68 230.84,50.9 234.74,33.99 L 227.25,22 L 89.75,-9.74 L 77.76,-2.25 C 77.05,0.82 71.45,1.34 67.27,2.64 C 60.12,4.86 51.36,6.37 42.62,7.44 C 21.83,9.99 1.05,9.99 -0.06,10 L 0,20M 0,600 L 0,610" />
<path class="note" marker-start="url(#cutonfoldFrom)" marker-end="url(#cutonfoldTo)" data-text="plugin-annotations:cutOnFoldAndGrainline" data-text-class="center fill-note" id="fs-4" d="M 0,49 L 15,49 L 15,571 L 0,571" />
<text><textpath xlink:href="#fs-4" startOffset="50%"><tspan class="center fill-note">plugin-annotations:cutOnFoldAndGrainline</tspan></textpath>
</text>
<path class="contrast help" id="fs-5" d="M 0,280 L 287.5,280" />
<path class="hidden" data-text-dy="-1" data-text-class="center contrast help" data-text="brian:chestLine              brian:chestLine              brian:chestLine              brian:chestLine              brian:chestLine              brian:chestLine              brian:chestLine              brian:chestLine              brian:chestLine              brian:chestLine              brian:chestLine" id="fs-6" d="M 0,280 L 287.5,280" />
<text><textpath xlink:href="#fs-6" startOffset="50%"><tspan dy="-1" class="center contrast help">brian:chestLine &#160;&#160;&#160;&#160;&#160;&#160;&#160;&#160;&#160;&#160;&#160;&#160; brian:chestLine &#160;&#160;&#160;&#160;&#160;&#160;&#160;&#160;&#160;&#160;&#160;&#160; brian:chestLine &#160;&#160;&#160;&#160;&#160;&#160;&#160;&#160;&#160;&#160;&#160;&#160; brian:chestLine &#160;&#160;&#160;&#160;&#160;&#160;&#160;&#160;&#160;&#160;&#160;&#160; brian:chestLine &#160;&#160;&#160;&#160;&#160;&#160;&#160;&#160;&#160;&#160;&#160;&#160; brian:chestLine &#160;&#160;&#160;&#160;&#160;&#160;&#160;&#160;&#160;&#160;&#160;&#160; brian:chestLine &#160;&#160;&#160;&#160;&#160;&#160;&#160;&#160;&#160;&#160;&#160;&#160; brian:chestLine &#160;&#160;&#160;&#160;&#160;&#160;&#160;&#160;&#160;&#160;&#160;&#160; brian:chestLine &#160;&#160;&#160;&#160;&#160;&#160;&#160;&#160;&#160;&#160;&#160;&#160; brian:chestLine &#160;&#160;&#160;&#160;&#160;&#160;&#160;&#160;&#160;&#160;&#160;&#160; brian:chestLine</tspan></textpath>
</text>
<path class="contrast help" id="fs-7" d="M 0,480 L 287.5,480" />
<path class="hidden" data-text-dy="-1" data-text-class="center contrast help" data-text="brian:waistLine              brian:waistLine              brian:waistLine              brian:waistLine              brian:waistLine              brian:waistLine              brian:waistLine              brian:waistLine              brian:waistLine              brian:waistLine              brian:waistLine" id="fs-8" d="M 0,480 L 287.5,480" />
<text><textpath xlink:href="#fs-8" startOffset="50%"><tspan dy="-1" class="center contrast help">brian:waistLine &#160;&#160;&#160;&#160;&#160;&#160;&#160;&#160;&#160;&#160;&#160;&#160; brian:waistLine &#160;&#160;&#160;&#160;&#160;&#160;&#160;&#160;&#160;&#160;&#160;&#160; brian:waistLine &#160;&#160;&#160;&#160;&#160;&#160;&#160;&#160;&#160;&#160;&#160;&#160; brian:waistLine &#160;&#160;&#160;&#160;&#160;&#160;&#160;&#160;&#160;&#160;&#160;&#160; brian:waistLine &#160;&#160;&#160;&#160;&#160;&#160;&#160;&#160;&#160;&#160;&#160;&#160; brian:waistLine &#160;&#160;&#160;&#160;&#160;&#160;&#160;&#160;&#160;&#160;&#160;&#160; brian:waistLine &#160;&#160;&#160;&#160;&#160;&#160;&#160;&#160;&#160;&#160;&#160;&#160; brian:waistLine &#160;&#160;&#160;&#160;&#160;&#160;&#160;&#160;&#160;&#160;&#160;&#160; brian:waistLine &#160;&#160;&#160;&#160;&#160;&#160;&#160;&#160;&#160;&#160;&#160;&#160; brian:waistLine &#160;&#160;&#160;&#160;&#160;&#160;&#160;&#160;&#160;&#160;&#160;&#160; brian:waistLine</tspan></textpath>
</text>
<path class="mark" data-text="28.32cm" data-text-class="fill-mark center" marker-start="url(#dimensionFrom)" marker-end="url(#dimensionTo)" id="fs-9" d="M 287.5,255.9 C 285.93,255.9 284.3,255.46 282.65,254.95 C 277,253.2 271.41,250.01 266.88,246.92 C 263.99,244.94 261.54,243.01 259.96,241.44 C 247.21,228.68 245.5,197.4 245.5,156.32 C 245.5,147.52 245.48,139.19 245.46,131.33 C 245.43,123.39 245.41,115.98 245.41,109 C 245.41,76.24 245.63,53.51 249.36,37.37" />
<text><textpath xlink:href="#fs-9" startOffset="50%"><tspan class="fill-mark center">28.32cm</tspan></textpath>
</text>
<path class="mark dotted" id="fs-10" d="M 287.5,280.9 L 287.5,255.9" />
<path class="mark dotted" id="fs-11" d="M 225,31.74 L 249.36,37.37" />
<path class="mark" data-text="12.49cm" data-text-class="fill-mark center" marker-start="url(#dimensionFrom)" marker-end="url(#dimensionTo)" id="fs-12" d="M 205.5,156.32 C 205.5,147.52 205.48,139.19 205.46,131.33 C 205.43,123.51 205.41,116.1 205.41,109.11 C 205.41,72.07 206.19,46.54 210.38,28.37" />
<text><textpath xlink:href="#fs-12" startOffset="50%"><tspan class="fill-mark center">12.49cm</tspan></textpath>
</text>
<path class="mark dotted" id="fs-13" d="M 220.5,156.32 L 205.5,156.32" />
<path class="mark dotted" id="fs-14" d="M 225,31.74 L 210.38,28.37" />
<path class="mark dotted" id="fs-15" d="M 287.5,600 L 312.5,600" />
<path class="mark dotted" id="fs-16" d="M 287.5,280.9 L 312.5,280.9" />
<path class="mark" data-text="31.91cm" data-text-class="fill-mark center" data-macro-id="hHemToArmhole" marker-start="url(#dimensionFrom)" marker-end="url(#dimensionTo)" id="fs-17" d="M 312.5,600 L 312.5,280.9" />
<text><textpath xlink:href="#fs-17" startOffset="50%"><tspan class="fill-mark center">31.91cm</tspan></textpath>
</text>
<path class="mark dotted" id="fs-18" d="M 287.5,600 L 327.5,600" />
<path class="mark dotted" id="fs-19" d="M 220.5,156.32 L 327.5,156.32" />
<path class="mark" data-text="44.37cm" data-text-class="fill-mark center" data-macro-id="hHemToArmholePitch" marker-start="url(#dimensionFrom)" marker-end="url(#dimensionTo)" id="fs-20" d="M 327.5,600 L 327.5,156.32" />
<text><textpath xlink:href="#fs-20" startOffset="50%"><tspan class="fill-mark center">44.37cm</tspan></textpath>
</text>
<path class="mark dotted" id="fs-21" d="M 287.5,600 L 342.5,600" />
<path class="mark dotted" id="fs-22" d="M 225,31.74 L 342.5,31.74" />
<path class="mark" data-text="56.83cm" data-text-class="fill-mark center" data-macro-id="hHemToShoulder" marker-start="url(#dimensionFrom)" marker-end="url(#dimensionTo)" id="fs-23" d="M 342.5,600 L 342.5,31.74" />
<text><textpath xlink:href="#fs-23" startOffset="50%"><tspan class="fill-mark center">56.83cm</tspan></textpath>
</text>
<path class="mark dotted" id="fs-24" d="M 287.5,600 L 357.5,600" />
<path class="mark dotted" id="fs-25" d="M 87.5,0 L 357.5,0" />
<path class="mark" data-text="60cm" data-text-class="fill-mark center" data-macro-id="hTotal" marker-start="url(#dimensionFrom)" marker-end="url(#dimensionTo)" id="fs-26" d="M 357.5,600 L 357.5,0" />
<text><textpath xlink:href="#fs-26" startOffset="50%"><tspan class="fill-mark center">60cm</tspan></textpath>
</text>
<path class="mark dotted" id="fs-27" d="M 87.5,0 L 93.12,-24.36" />
<path class="mark dotted" id="fs-28" d="M 225,31.74 L 230.62,7.39" />
<path class="mark" data-text="14.11cm" data-text-class="fill-mark center" data-macro-id="lShoulder" marker-start="url(#dimensionFrom)" marker-end="url(#dimensionTo)" id="fs-29" d="M 93.12,-24.36 L 230.62,7.39" />
<text><textpath xlink:href="#fs-29" startOffset="50%"><tspan class="fill-mark center">14.11cm</tspan></textpath>
</text>
<path class="mark dotted" id="fs-30" d="M 0,600 L 0,625" />
<path class="mark dotted" id="fs-31" d="M 287.5,600 L 287.5,625" />
<path class="mark" data-text="28.75cm" data-text-class="fill-mark center" data-macro-id="wHem" marker-start="url(#dimensionFrom)" marker-end="url(#dimensionTo)" id="fs-32" d="M 0,625 L 287.5,625" />
<text><textpath xlink:href="#fs-32" startOffset="50%"><tspan class="fill-mark center">28.75cm</tspan></textpath>
</text>
<path class="mark dotted" id="fs-33" d="M 0,600 L -15,600" />
<path class="mark dotted" id="fs-34" d="M 0,480 L -15,480" />
<path class="mark" data-text="12cm" data-text-class="fill-mark center" data-macro-id="hHemToWaist" marker-start="url(#dimensionFrom)" marker-end="url(#dimensionTo)" id="fs-35" d="M -15,600 L -15,480" />
<text><textpath xlink:href="#fs-35" startOffset="50%"><tspan class="fill-mark center">12cm</tspan></textpath>
</text>
<path class="mark dotted" id="fs-36" d="M 0,600 L -30,600" />
<path class="mark dotted" id="fs-37" d="M 0,20 L -30,20" />
<path class="mark" data-text="58cm" data-text-class="fill-mark center" data-macro-id="hHemToNeckOpeningBottom" marker-start="url(#dimensionFrom)" marker-end="url(#dimensionTo)" id="fs-38" d="M -30,600 L -30,20" />
<text><textpath xlink:href="#fs-38" startOffset="50%"><tspan class="fill-mark center">58cm</tspan></textpath>
</text>
<path class="mark dotted" id="fs-39" d="M 0,20 L 0,-25" />
<path class="mark dotted" id="fs-40" d="M 87.5,0 L 87.5,-25" />
<path class="mark" data-text="8.75cm" data-text-class="fill-mark center" data-macro-id="wCFrontToHps" marker-start="url(#dimensionFrom)" marker-end="url(#dimensionTo)" id="fs-41" d="M 0,-25 L 87.5,-25" />
<text><textpath xlink:href="#fs-41" startOffset="50%"><tspan class="fill-mark center">8.75cm</tspan></textpath>
</text>
<path class="mark dotted" id="fs-42" d="M 0,20 L 0,-40" />
<path class="mark dotted" id="fs-43" d="M 225,31.74 L 225,-40" />
<path class="mark" data-text="22.5cm" data-text-class="fill-mark center" data-macro-id="lShoulder" marker-start="url(#dimensionFrom)" marker-end="url(#dimensionTo)" id="fs-44" d="M 0,-40 L 225,-40" />
<text><textpath xlink:href="#fs-44" startOffset="50%"><tspan class="fill-mark center">22.5cm</tspan></textpath>
</text>
<text class="text-4xl fill-note font-bold left" transform="matrix(1, 0, 0, 1, 0, 0) rotate(0 110.25 156.32218813988246)" x="110.25" y="156.32"><tspan>2 </tspan>
</text>
<text class="text-sm fill-current left" transform="matrix(1, 0, 0, 1, 0, 0) rotate(0 110.25 156.32218813988246)" x="110.25" y="160.32"><tspan>Thursday, Nov 20, 2025 </tspan>
</text>
<text transform="matrix(1, 0, 0, 1, 0, 0) rotate(0 110.25 156.32218813988246)" class="text-lg fill-current font-bold left" x="110.25" y="172.32"><tspan>back </tspan>
</text>
<text class="fill-note left" transform="matrix(1, 0, 0, 1, 0, 0) rotate(0 110.25 156.32218813988246)" x="110.25" y="180.32"><tspan>FreeSewing Brian body block v4.4.0 ( ephemeral ) </tspan>
</text>
<text class="text-md fill-current left" transform="matrix(1, 0, 0, 1, 0, 0) rotate(0 110.25 156.32218813988246)" x="110.25" y="188.32"><tspan>plugin-annotations:cut,1,plugin-annotations:onFold,plugin-annotations:from,plugin-annotations:fabric,</tspan><tspan x="110.25" dy="8"> </tspan>
</text>
<use x="110.25" y="256.32" xlink:href="#logo" transform="translate(110.25, 256.32) scale(1) translate(-110.25, -256.32)" />
<use x="220.5" y="156.32" xlink:href="#bnotch" transform="translate(220.5, 156.32) scale(1) translate(-220.5, -156.32)" />
</g>
<!-- end of group #fs-stack-brian.back-part-brian.back -->
</g>
  <!-- Dimension label -->
  <text x="794.2234514261918" y="695" 
        text-anchor="middle" 
        font-family="Arial, sans-serif" 
        font-size="12" 
        fill="#666666">
    138.8 cm × 68 cm
  </text>
</svg>